<mxfile host="app.diagrams.net" modified="2024-03-11T18:07:22.298Z" agent="Mozilla/5.0 (Windows NT 10.0; Win64; x64; rv:123.0) Gecko/20100101 Firefox/123.0" etag="CuAZ3VwwIbSGW2MtyG3E" version="24.0.4" type="github">
  <diagram id="6a731a19-8d31-9384-78a2-239565b7b9f0" name="Page-1">
    <mxGraphModel dx="2049" dy="1066" grid="1" gridSize="10" guides="1" tooltips="1" connect="1" arrows="1" fold="1" page="1" pageScale="1" pageWidth="827" pageHeight="1169" background="none" math="0" shadow="0">
      <root>
        <mxCell id="0" />
        <mxCell id="1" parent="0" />
        <mxCell id="Wmm3kkMzlQUYRXntBYTg-2259" value="" style="image;sketch=0;aspect=fixed;html=1;points=[];align=center;fontSize=12;image=img/lib/mscae/Virtual_Machine.svg;" parent="1" vertex="1">
          <mxGeometry x="80" y="392.75" width="50" height="46" as="geometry" />
        </mxCell>
        <mxCell id="Wmm3kkMzlQUYRXntBYTg-2260" value="" style="image;sketch=0;aspect=fixed;html=1;points=[];align=center;fontSize=12;image=img/lib/mscae/Virtual_Machine.svg;" parent="1" vertex="1">
          <mxGeometry x="80" y="422.75" width="71.74" height="66" as="geometry" />
        </mxCell>
        <mxCell id="Wmm3kkMzlQUYRXntBYTg-2261" value="" style="image;sketch=0;aspect=fixed;html=1;points=[];align=center;fontSize=12;image=img/lib/mscae/Virtual_Machine.svg;" parent="1" vertex="1">
          <mxGeometry x="10" y="454" width="50" height="46" as="geometry" />
        </mxCell>
        <mxCell id="Wmm3kkMzlQUYRXntBYTg-2262" value="" style="image;sketch=0;aspect=fixed;html=1;points=[];align=center;fontSize=12;image=img/lib/mscae/Virtual_Machine.svg;" parent="1" vertex="1">
          <mxGeometry x="180" y="412.75" width="50" height="46" as="geometry" />
        </mxCell>
        <mxCell id="gzjT-cttMb3SWeKKo4pO-6" style="edgeStyle=orthogonalEdgeStyle;rounded=0;orthogonalLoop=1;jettySize=auto;html=1;exitX=0.5;exitY=1;exitDx=0;exitDy=0;strokeColor=default;endArrow=none;endFill=0;" edge="1" parent="1" source="gzjT-cttMb3SWeKKo4pO-1" target="gzjT-cttMb3SWeKKo4pO-2">
          <mxGeometry relative="1" as="geometry">
            <Array as="points">
              <mxPoint x="416" y="487" />
              <mxPoint x="415" y="487" />
            </Array>
          </mxGeometry>
        </mxCell>
        <mxCell id="gzjT-cttMb3SWeKKo4pO-1" value="Internet" style="image;aspect=fixed;perimeter=ellipsePerimeter;html=1;align=center;shadow=0;dashed=0;spacingTop=3;image=img/lib/active_directory/internet_cloud.svg;horizontal=1;verticalAlign=middle;labelPosition=center;verticalLabelPosition=middle;labelBackgroundColor=none;" vertex="1" parent="1">
          <mxGeometry x="374.75" y="415" width="81.75" height="51.5" as="geometry" />
        </mxCell>
        <mxCell id="gzjT-cttMb3SWeKKo4pO-14" style="edgeStyle=orthogonalEdgeStyle;rounded=0;orthogonalLoop=1;jettySize=auto;html=1;exitX=1;exitY=0.5;exitDx=0;exitDy=0;endArrow=none;endFill=0;" edge="1" parent="1" source="gzjT-cttMb3SWeKKo4pO-2" target="gzjT-cttMb3SWeKKo4pO-13">
          <mxGeometry relative="1" as="geometry" />
        </mxCell>
        <mxCell id="gzjT-cttMb3SWeKKo4pO-2" value="&lt;div align=&quot;center&quot;&gt;Fortigate&lt;/div&gt;&lt;div align=&quot;center&quot;&gt;172.19.1.10 /24&lt;/div&gt;" style="image;html=1;image=img/lib/clip_art/networking/Firewall_02_128x128.png;align=center;" vertex="1" parent="1">
          <mxGeometry x="374.75" y="500" width="80" height="80" as="geometry" />
        </mxCell>
        <mxCell id="gzjT-cttMb3SWeKKo4pO-5" value="IP publique&lt;br&gt;10.60.11.9" style="text;html=1;align=center;verticalAlign=middle;resizable=0;points=[];autosize=1;strokeColor=none;fillColor=none;labelBackgroundColor=default;" vertex="1" parent="1">
          <mxGeometry x="310" y="466.5" width="90" height="40" as="geometry" />
        </mxCell>
        <mxCell id="gzjT-cttMb3SWeKKo4pO-13" value="&lt;div&gt;Routeur &lt;br&gt;&lt;/div&gt;&lt;div&gt;172.19.1.1 /24&lt;/div&gt;" style="image;points=[];aspect=fixed;html=1;align=center;shadow=0;dashed=0;image=img/lib/allied_telesis/security/Router_VPN.svg;labelPosition=center;verticalLabelPosition=top;verticalAlign=bottom;" vertex="1" parent="1">
          <mxGeometry x="520" y="507.55" width="91.45" height="64.9" as="geometry" />
        </mxCell>
        <mxCell id="gzjT-cttMb3SWeKKo4pO-19" style="edgeStyle=orthogonalEdgeStyle;rounded=0;orthogonalLoop=1;jettySize=auto;html=1;exitX=1;exitY=0.5;exitDx=0;exitDy=0;entryX=0;entryY=0.5;entryDx=0;entryDy=0;endArrow=none;endFill=0;dashed=1;dashPattern=1 1;shape=link;" edge="1" parent="1" source="gzjT-cttMb3SWeKKo4pO-15" target="gzjT-cttMb3SWeKKo4pO-18">
          <mxGeometry relative="1" as="geometry" />
        </mxCell>
        <mxCell id="gzjT-cttMb3SWeKKo4pO-23" style="edgeStyle=orthogonalEdgeStyle;rounded=0;orthogonalLoop=1;jettySize=auto;html=1;exitX=0.5;exitY=0;exitDx=0;exitDy=0;endArrow=none;endFill=0;shape=link;" edge="1" parent="1" source="gzjT-cttMb3SWeKKo4pO-15" target="gzjT-cttMb3SWeKKo4pO-13">
          <mxGeometry relative="1" as="geometry" />
        </mxCell>
        <mxCell id="gzjT-cttMb3SWeKKo4pO-15" value="Switch 1 &lt;br&gt;&lt;div&gt;172.19.1.11 /24&lt;/div&gt;" style="image;aspect=fixed;perimeter=ellipsePerimeter;html=1;align=center;shadow=0;dashed=0;spacingTop=3;image=img/lib/active_directory/wiring_hub.svg;labelPosition=left;verticalLabelPosition=middle;verticalAlign=middle;" vertex="1" parent="1">
          <mxGeometry x="454.75" y="660" width="94.12" height="64" as="geometry" />
        </mxCell>
        <mxCell id="gzjT-cttMb3SWeKKo4pO-24" style="edgeStyle=orthogonalEdgeStyle;rounded=0;orthogonalLoop=1;jettySize=auto;html=1;exitX=0.5;exitY=0;exitDx=0;exitDy=0;endArrow=none;endFill=0;shape=link;" edge="1" parent="1" source="gzjT-cttMb3SWeKKo4pO-18" target="gzjT-cttMb3SWeKKo4pO-13">
          <mxGeometry relative="1" as="geometry">
            <mxPoint x="580" y="580" as="targetPoint" />
            <Array as="points">
              <mxPoint x="629" y="595" />
              <mxPoint x="580" y="595" />
            </Array>
          </mxGeometry>
        </mxCell>
        <mxCell id="gzjT-cttMb3SWeKKo4pO-18" value="&lt;div&gt;Switch 2&lt;/div&gt;&lt;div&gt;172.19.1.12  /24&lt;/div&gt;" style="image;aspect=fixed;perimeter=ellipsePerimeter;html=1;align=left;shadow=0;dashed=0;spacingTop=3;image=img/lib/active_directory/wiring_hub.svg;labelPosition=right;verticalLabelPosition=middle;verticalAlign=middle;" vertex="1" parent="1">
          <mxGeometry x="582.37" y="660" width="94.12" height="64" as="geometry" />
        </mxCell>
        <mxCell id="gzjT-cttMb3SWeKKo4pO-29" style="edgeStyle=orthogonalEdgeStyle;rounded=0;orthogonalLoop=1;jettySize=auto;html=1;exitX=0.5;exitY=0;exitDx=0;exitDy=0;entryX=0.5;entryY=1;entryDx=0;entryDy=0;endArrow=none;endFill=0;" edge="1" parent="1" source="gzjT-cttMb3SWeKKo4pO-25" target="gzjT-cttMb3SWeKKo4pO-15">
          <mxGeometry relative="1" as="geometry" />
        </mxCell>
        <mxCell id="gzjT-cttMb3SWeKKo4pO-25" value="ESXi&amp;nbsp; 1&lt;br&gt;172.19.2.11 /24" style="image;aspect=fixed;perimeter=ellipsePerimeter;html=1;align=right;shadow=0;dashed=0;spacingTop=3;image=img/lib/active_directory/generic_server.svg;labelPosition=left;verticalLabelPosition=middle;verticalAlign=middle;" vertex="1" parent="1">
          <mxGeometry x="476.61" y="750" width="50.4" height="90" as="geometry" />
        </mxCell>
        <mxCell id="gzjT-cttMb3SWeKKo4pO-30" style="edgeStyle=orthogonalEdgeStyle;rounded=0;orthogonalLoop=1;jettySize=auto;html=1;exitX=0.5;exitY=0;exitDx=0;exitDy=0;entryX=0.5;entryY=1;entryDx=0;entryDy=0;endArrow=none;endFill=0;" edge="1" parent="1" source="gzjT-cttMb3SWeKKo4pO-26" target="gzjT-cttMb3SWeKKo4pO-18">
          <mxGeometry relative="1" as="geometry" />
        </mxCell>
        <mxCell id="gzjT-cttMb3SWeKKo4pO-26" value="ESXi&amp;nbsp; 2&lt;br&gt;&lt;div&gt;172.19.2.12 /24&lt;/div&gt;" style="image;aspect=fixed;perimeter=ellipsePerimeter;html=1;align=left;shadow=0;dashed=0;spacingTop=3;image=img/lib/active_directory/generic_server.svg;labelPosition=right;verticalLabelPosition=middle;verticalAlign=middle;" vertex="1" parent="1">
          <mxGeometry x="604.23" y="750" width="50.4" height="90" as="geometry" />
        </mxCell>
        <mxCell id="gzjT-cttMb3SWeKKo4pO-34" value="" style="edgeStyle=none;orthogonalLoop=1;jettySize=auto;html=1;rounded=0;entryX=0;entryY=1;entryDx=0;entryDy=0;endArrow=none;endFill=0;dashed=1;dashPattern=1 1;" edge="1" parent="1" target="gzjT-cttMb3SWeKKo4pO-18">
          <mxGeometry width="100" relative="1" as="geometry">
            <mxPoint x="530" y="770" as="sourcePoint" />
            <mxPoint x="330" y="820" as="targetPoint" />
            <Array as="points" />
          </mxGeometry>
        </mxCell>
        <mxCell id="gzjT-cttMb3SWeKKo4pO-35" value="" style="edgeStyle=none;orthogonalLoop=1;jettySize=auto;html=1;rounded=0;endArrow=none;endFill=0;dashed=1;dashPattern=1 1;" edge="1" parent="1">
          <mxGeometry width="100" relative="1" as="geometry">
            <mxPoint x="540" y="720" as="sourcePoint" />
            <mxPoint x="600" y="770" as="targetPoint" />
            <Array as="points" />
          </mxGeometry>
        </mxCell>
        <mxCell id="gzjT-cttMb3SWeKKo4pO-36" value="" style="shape=image;verticalLabelPosition=bottom;labelBackgroundColor=#ffffff;verticalAlign=top;aspect=fixed;imageAspect=0;image=data:image/svg+xml,PHN2ZyB4bWxuczpjYz0iaHR0cDovL2NyZWF0aXZlY29tbW9ucy5vcmcvbnMjIiB4bWxuczpkYz0iaHR0cDovL3B1cmwub3JnL2RjL2VsZW1lbnRzLzEuMS8iIHhtbG5zOmlua3NjYXBlPSJodHRwOi8vd3d3Lmlua3NjYXBlLm9yZy9uYW1lc3BhY2VzL2lua3NjYXBlIiB4bWxuczpyZGY9Imh0dHA6Ly93d3cudzMub3JnLzE5OTkvMDIvMjItcmRmLXN5bnRheC1ucyMiIHhtbG5zOnNvZGlwb2RpPSJodHRwOi8vc29kaXBvZGkuc291cmNlZm9yZ2UubmV0L0RURC9zb2RpcG9kaS0wLmR0ZCIgeG1sbnM6c3ZnPSJodHRwOi8vd3d3LnczLm9yZy8yMDAwL3N2ZyIgeG1sbnM9Imh0dHA6Ly93d3cudzMub3JnLzIwMDAvc3ZnIiB4bWxuczp4bGluaz0iaHR0cDovL3d3dy53My5vcmcvMTk5OS94bGluayIgdmVyc2lvbj0iMS4xIiBpZD0ic3ZnMjU1MjU2IiBpbmtzY2FwZTp2ZXJzaW9uPSIwLjkyLjMgKDI0MDU1NDYsIDIwMTgtMDMtMTEpIiBzb2RpcG9kaTpkb2NuYW1lPSJiaXp0YWxrX3NlcnZlcl8xLnN2ZyIgeD0iMHB4IiB5PSIwcHgiIHZpZXdCb3g9IjAgMCA0OC40MSA2OS43NiIgc3R5bGU9ImVuYWJsZS1iYWNrZ3JvdW5kOm5ldyAwIDAgNDguNDEgNjkuNzY7IiB4bWw6c3BhY2U9InByZXNlcnZlIj4mI3hhOzxzb2RpcG9kaTpuYW1lZHZpZXcgYm9yZGVyY29sb3I9IiM2NjY2NjYiIGJvcmRlcm9wYWNpdHk9IjEiIGZpdC1tYXJnaW4tYm90dG9tPSIwIiBmaXQtbWFyZ2luLWxlZnQ9IjAiIGZpdC1tYXJnaW4tcmlnaHQ9IjAiIGZpdC1tYXJnaW4tdG9wPSIwIiBncmlkdG9sZXJhbmNlPSIxMCIgZ3VpZGV0b2xlcmFuY2U9IjEwIiBpZD0ibmFtZWR2aWV3MjU1MjU4IiBpbmtzY2FwZTpjdXJyZW50LWxheWVyPSJzdmcyNTUyNTYiIGlua3NjYXBlOmN4PSIzMi4xOTA4OTciIGlua3NjYXBlOmN5PSI0Ni41MDgzNDYiIGlua3NjYXBlOnBhZ2VvcGFjaXR5PSIwIiBpbmtzY2FwZTpwYWdlc2hhZG93PSIyIiBpbmtzY2FwZTp3aW5kb3ctaGVpZ2h0PSIxMDE3IiBpbmtzY2FwZTp3aW5kb3ctbWF4aW1pemVkPSIxIiBpbmtzY2FwZTp3aW5kb3ctd2lkdGg9IjE5MjAiIGlua3NjYXBlOndpbmRvdy14PSItOCIgaW5rc2NhcGU6d2luZG93LXk9Ii04IiBpbmtzY2FwZTp6b29tPSI5LjEyNTM2ODkiIG9iamVjdHRvbGVyYW5jZT0iMTAiIHBhZ2Vjb2xvcj0iI2ZmZmZmZiIgc2hvd2dyaWQ9ImZhbHNlIj4mI3hhOwk8L3NvZGlwb2RpOm5hbWVkdmlldz4mI3hhOzxnIGlkPSJnMjU1MjU0IiB0cmFuc2Zvcm09InRyYW5zbGF0ZSgtMC43NSwtMC43NTAwMzg3OCkiPiYjeGE7CTx0aXRsZSBpZD0idGl0bGUyNTUxNjEiPlBhZ2UtMTwvdGl0bGU+JiN4YTsJPGcgaWQ9Imdyb3VwMTA5MTEtMSIgdHJhbnNmb3JtPSJ0cmFuc2xhdGUoMS41LC0xLjUpIj4mI3hhOwkJPHRpdGxlIGlkPSJ0aXRsZTI1NTE2MyI+Qml6VGFsayBTZXJ2ZXIgIzE8L3RpdGxlPiYjeGE7CQk8ZyBpZD0iZ3JvdXAxMDkxMi0yIj4mI3hhOwkJCTx0aXRsZSBpZD0idGl0bGUyNTUxNjUiPkdlbmVyaWMgU2VydmljZTwvdGl0bGU+JiN4YTsJCQk8ZyBpZD0iZ3JvdXAxMDkxMy0zIiB0cmFuc2Zvcm09InRyYW5zbGF0ZSgwLC0wLjAwNzM5ODc2KSI+JiN4YTsJCQkJPHRpdGxlIGlkPSJ0aXRsZTI1NTE2NyI+ZzE1NDMzLjExNzIxPC90aXRsZT4mI3hhOwkJCQk8ZyBpZD0ic2hhcGUxMDkxNC00Ij4mI3hhOwkJCQkJPHRpdGxlIGlkPSJ0aXRsZTI1NTE2OSI+cmVjdDE1NDA1PC90aXRsZT4mI3hhOwkJCQkJJiN4YTsJCQkJCQk8cmVjdCBpZD0icmVjdDI1NTE3MSIgeT0iMy4wMSIgc3R5bGU9ImZpbGw6I0ZGRkZGRjtzdHJva2U6IzU1NkE4QTtzdHJva2Utd2lkdGg6MS41O3N0cm9rZS1taXRlcmxpbWl0OjM7IiB3aWR0aD0iMzkuNzUiIGhlaWdodD0iNjguMjUiLz4mI3hhOwkJCQk8L2c+JiN4YTsJCQkJPGcgaWQ9Imdyb3VwMTA5MTUtNiIgdHJhbnNmb3JtPSJ0cmFuc2xhdGUoMS41LC0wLjc1KSI+JiN4YTsJCQkJCTx0aXRsZSBpZD0idGl0bGUyNTUxNzQiPmcxNTQyNTwvdGl0bGU+JiN4YTsJCQkJCTxnIGlkPSJzaGFwZTEwOTE2LTciIHRyYW5zZm9ybT0idHJhbnNsYXRlKDE4KSI+JiN4YTsJCQkJCQk8dGl0bGUgaWQ9InRpdGxlMjU1MTc2Ij5yZWN0MTU0MDc8L3RpdGxlPiYjeGE7CQkJCQkJPHJlY3QgaWQ9InJlY3QyNTUxNzgiIHk9IjQuNTEiIHN0eWxlPSJmaWxsOiNFNUU1RTU7IiB3aWR0aD0iMTkuNSIgaGVpZ2h0PSI2Ni43NSIvPiYjeGE7CQkJCQk8L2c+JiN4YTsJCQkJCTxnIGlkPSJzaGFwZTEwOTE3LTkiIHRyYW5zZm9ybT0idHJhbnNsYXRlKDAsLTQ4KSI+JiN4YTsJCQkJCQk8dGl0bGUgaWQ9InRpdGxlMjU1MTgxIj5yZWN0MTU0MDk8L3RpdGxlPiYjeGE7CQkJCQkJPHJlY3QgaWQ9InJlY3QyNTUxODMiIHk9IjY5LjAxIiBzdHlsZT0iZmlsbDojMkJDN0Y0OyIgd2lkdGg9IjE4IiBoZWlnaHQ9IjIuMjUiLz4mI3hhOwkJCQkJPC9nPiYjeGE7CQkJCQk8ZyBpZD0ic2hhcGUxMDkxOC0xMSIgdHJhbnNmb3JtPSJ0cmFuc2xhdGUoMCwtNTguNSkiPiYjeGE7CQkJCQkJPHRpdGxlIGlkPSJ0aXRsZTI1NTE4NiI+cG9seWdvbjE1NDExPC90aXRsZT4mI3hhOwkJCQkJCTxyZWN0IGlkPSJyZWN0MjU1MTg4IiB5PSI2OS4wMSIgc3R5bGU9ImZpbGw6bm9uZTsiIHdpZHRoPSIyNyIgaGVpZ2h0PSIyLjI1Ii8+JiN4YTsJCQkJCTwvZz4mI3hhOwkJCQkJPGcgaWQ9InNoYXBlMTA5MTktMTMiIHRyYW5zZm9ybT0idHJhbnNsYXRlKDAsLTU4LjUpIj4mI3hhOwkJCQkJCTx0aXRsZSBpZD0idGl0bGUyNTUxOTEiPnBvbHlsaW5lMTU0MTM8L3RpdGxlPiYjeGE7CQkJCQkJPHJlY3QgaWQ9InJlY3QyNTUxOTMiIHk9IjY5LjAxIiBzdHlsZT0iZmlsbDpub25lOyIgd2lkdGg9IjI3IiBoZWlnaHQ9IjIuMjUiLz4mI3hhOwkJCQkJPC9nPiYjeGE7CQkJCQk8ZyBpZD0ic2hhcGUxMDkyMC0xNSIgdHJhbnNmb3JtPSJ0cmFuc2xhdGUoMCwtNTMuMjUpIj4mI3hhOwkJCQkJCTx0aXRsZSBpZD0idGl0bGUyNTUxOTYiPnJlY3QxNTQxNTwvdGl0bGU+JiN4YTsJCQkJCQk8cmVjdCBpZD0icmVjdDI1NTE5OCIgeT0iNjkuMDEiIHN0eWxlPSJmaWxsOiMyQkM3RjQ7IiB3aWR0aD0iMTgiIGhlaWdodD0iMi4yNSIvPiYjeGE7CQkJCQk8L2c+JiN4YTsJCQkJCTxnIGlkPSJzaGFwZTEwOTIxLTE3IiB0cmFuc2Zvcm09InRyYW5zbGF0ZSgwLC01OC41KSI+JiN4YTsJCQkJCQk8dGl0bGUgaWQ9InRpdGxlMjU1MjAxIj5yZWN0MTU0MTc8L3RpdGxlPiYjeGE7CQkJCQkJPHJlY3QgaWQ9InJlY3QyNTUyMDMiIHk9IjY5LjAxIiBzdHlsZT0iZmlsbDojMkJDN0Y0OyIgd2lkdGg9IjE4IiBoZWlnaHQ9IjIuMjUiLz4mI3hhOwkJCQkJPC9nPiYjeGE7CQkJCQk8ZyBpZD0ic2hhcGUxMDkyMi0xOSIgdHJhbnNmb3JtPSJ0cmFuc2xhdGUoMTgsLTQ4KSI+JiN4YTsJCQkJCQk8dGl0bGUgaWQ9InRpdGxlMjU1MjA2Ij5yZWN0MTU0MTk8L3RpdGxlPiYjeGE7CQkJCQkJPHJlY3QgaWQ9InJlY3QyNTUyMDgiIHk9IjY5LjAxIiBzdHlsZT0iZmlsbDojNTU2QThBOyIgd2lkdGg9IjE5LjUiIGhlaWdodD0iMi4yNSIvPiYjeGE7CQkJCQk8L2c+JiN4YTsJCQkJCTxnIGlkPSJzaGFwZTEwOTIzLTIxIiB0cmFuc2Zvcm09InRyYW5zbGF0ZSgxOCwtNTMuMjUpIj4mI3hhOwkJCQkJCTx0aXRsZSBpZD0idGl0bGUyNTUyMTEiPnJlY3QxNTQyMTwvdGl0bGU+JiN4YTsJCQkJCQk8cmVjdCBpZD0icmVjdDI1NTIxMyIgeT0iNjkuMDEiIHN0eWxlPSJmaWxsOiM1NTZBOEE7IiB3aWR0aD0iMTkuNSIgaGVpZ2h0PSIyLjI1Ii8+JiN4YTsJCQkJCTwvZz4mI3hhOwkJCQkJPGcgaWQ9InNoYXBlMTA5MjQtMjMiIHRyYW5zZm9ybT0idHJhbnNsYXRlKDE4LC01OC41KSI+JiN4YTsJCQkJCQk8dGl0bGUgaWQ9InRpdGxlMjU1MjE2Ij5yZWN0MTU0MjM8L3RpdGxlPiYjeGE7CQkJCQkJPHJlY3QgaWQ9InJlY3QyNTUyMTgiIHk9IjY5LjAxIiBzdHlsZT0iZmlsbDojNTU2QThBOyIgd2lkdGg9IjE5LjUiIGhlaWdodD0iMi4yNSIvPiYjeGE7CQkJCQk8L2c+JiN4YTsJCQkJPC9nPiYjeGE7CQkJCTxnIGlkPSJzaGFwZTEwOTI1LTI1IiB0cmFuc2Zvcm09InRyYW5zbGF0ZSgwLjc1LC01OS4yNSkiPiYjeGE7CQkJCQk8dGl0bGUgaWQ9InRpdGxlMjU1MjIyIj5yZWN0MTU0Mjc8L3RpdGxlPiYjeGE7CQkJCQk8cmVjdCBpZD0icmVjdDI1NTIyNCIgeT0iNjkuMDEiIHN0eWxlPSJmaWxsOiM1NTZBOEE7IiB3aWR0aD0iMi4yNSIgaGVpZ2h0PSIyLjI1Ii8+JiN4YTsJCQkJPC9nPiYjeGE7CQkJCTxnIGlkPSJzaGFwZTEwOTI2LTI3IiB0cmFuc2Zvcm09InRyYW5zbGF0ZSgwLjc1LC01NCkiPiYjeGE7CQkJCQk8dGl0bGUgaWQ9InRpdGxlMjU1MjI3Ij5yZWN0MTU0Mjk8L3RpdGxlPiYjeGE7CQkJCQk8cmVjdCBpZD0icmVjdDI1NTIyOSIgeT0iNjkuMDEiIHN0eWxlPSJmaWxsOiM1NTZBOEE7IiB3aWR0aD0iMi4yNSIgaGVpZ2h0PSIyLjI1Ii8+JiN4YTsJCQkJPC9nPiYjeGE7CQkJCTxnIGlkPSJzaGFwZTEwOTI3LTI5IiB0cmFuc2Zvcm09InRyYW5zbGF0ZSgwLjc1LC00OC43NSkiPiYjeGE7CQkJCQk8dGl0bGUgaWQ9InRpdGxlMjU1MjMyIj5yZWN0MTU0MzE8L3RpdGxlPiYjeGE7CQkJCQk8cmVjdCBpZD0icmVjdDI1NTIzNCIgeT0iNjkuMDEiIHN0eWxlPSJmaWxsOiM1NTZBOEE7IiB3aWR0aD0iMi4yNSIgaGVpZ2h0PSIyLjI1Ii8+JiN4YTsJCQkJPC9nPiYjeGE7CQkJPC9nPiYjeGE7CQkJPGcgaWQ9InNoYXBlMTA5MjgtMzEiIHRyYW5zZm9ybT0idHJhbnNsYXRlKDEzLjY5ODMpIj4mI3hhOwkJCQk8dGl0bGUgaWQ9InRpdGxlMjU1MjM4Ij5wb2x5Z29uMTU0MzUuMTE3Mzc8L3RpdGxlPiYjeGE7CQkJCSYjeGE7CQkJCQk8cGF0aCBpZD0icGF0aDI1NTI0MCIgaW5rc2NhcGU6Y29ubmVjdG9yLWN1cnZhdHVyZT0iMCIgc3R5bGU9ImZpbGw6I0ZGRkZGRjtzdHJva2U6IzU1NkE4QTtzdHJva2Utd2lkdGg6MS41O3N0cm9rZS1taXRlcmxpbWl0OjM7IiBkPSIgICAgICBNOC4yNyw3MS4yNkwwLDU3LjAybDguMjctMTQuMjNoMTYuNTVsOC4yNywxNC4yM2wtOC4yNywxNC4yNEg4LjI3eiIvPiYjeGE7CQkJPC9nPiYjeGE7CQk8L2c+JiN4YTsJCTxnIGlkPSJzaGFwZTEtMzMiIHRyYW5zZm9ybT0idHJhbnNsYXRlKDIwLjUwNzIsLTIuNDkzNjEpIj4mI3hhOwkJCTx0aXRsZSBpZD0idGl0bGUyNTUyNDQiPkJpelRhbGsgU2VydmVyLjI1MjwvdGl0bGU+JiN4YTsJCQk8cmVjdCBpZD0icmVjdDI1NTI0NiIgeD0iMCIgeT0iNDcuMDkiIHN0eWxlPSJmaWxsOm5vbmU7IiB3aWR0aD0iMjIuMTYiIGhlaWdodD0iMjQuMTYiLz4mI3hhOwkJCSYjeGE7CQkJCTxpbWFnZSBzdHlsZT0ib3ZlcmZsb3c6dmlzaWJsZTtlbmFibGUtYmFja2dyb3VuZDpuZXcgICAgOyIgd2lkdGg9IjE2NiIgaGVpZ2h0PSIxODEiIGlkPSJpbWFnZTI1NTI0OCIgeGxpbms6aHJlZj0iZGF0YTppbWFnZS9wbmc7YmFzZTY0LGlWQk9SdzBLR2dvQUFBQU5TVWhFVWdBQUFLWUFBQUMxQ0FZQUFBRFZ5b1JDQUFBQUFYTlNSMElBcnM0YzZRQUFBQVJuUVUxQkFBQ3ggand2OFlRVUFBQUFKY0VoWmN3QUFEc01BQUE3REFjZHZxR1FBQUM1b1NVUkJWSGhlN2QxZnNCeFZmaDl3Vnprdml3MDdzQ3V4SnZ3WiB4RmFjY3VMMVpPMmtVcldWeWp6RVZYbllxcDBxSjdGZHFVckdMcWZzU3VMMUxQOFdDN1JxSWY1b0JZSUJnUUNCVUV2OGtZU0VhUDFEIEFyU285UWNocnNUZUZpQllaRXc2NjVlVTg5SlZmazNWeWZkN2J2ZHc1c3l2ZTdwbmV1NjlNK3FIcjRERHZYUHYxWHp1K1g5Ty80cFMgNm9yUG9ZTUg2MGNPSCs0Y2ZmUE40TzFqYnpuU3gxUlozSWlGVjBKZTM3dTN0bi8vL3ZhQk45N3dBRk1CcGdKTUJaaWg5UEZWRmpkaSA0U3huOTY1ZHJkZjI3UEVBVXdHbUFrd0ZtQkZndW5HTnFkNTU1NTIyOUxsVkZpOWk0YXhsNTQ0ZGpaZGZlc2w5OVpWWElzQlVnS2tBIE13Sk1GekJieWNjQnBoUEQ5TTNQcjdMNEVRdG5JUzg4LzN4OTI3WnRqcnQ5ZXdpWUNqQVZZQ3JBOUFDemg5RU1ZTFppbU9wbng0ODMgcEkrcHNqZ1JDNmM1eno3elRIdnIxcTBlWUNyQVZJQ3BBRE1FekE1ZzFxVFBTUUtZZFFPbUszMU1sY1dKV0RodDJmemtrL1dubjlyYyAzYkpsU3dTWUNqQlZETk1GektiME9Xa0J6Q2lHR2ZrblRtUkNyaks1aUlYVGtzY2ZlNnoxUkxmckE2WUNUQVdZS29icHNpbVhQbWRZIEFOT1BZU3JBN0VnZlUyWHlFUXVYY3padTJGQjdaT1BHenFaSEh3MEJVd0dtTW1DNmdEa1N5Q1NBMlRGZ1ZsTkhTeFN4Y0RubW9RY2UgcUcxNDZDRUhNQ1BBVklDcERKZ3VZSTRGTWdsZ05neVk2dFRKazRXNkFsWEtpVmk0bkxKKzNicmFBK3ZYTzRBWkFhWUNUR1hBOUFHeiA5TkV6WUlZR3pHb1F0QVFSQzVkTDFxMWQyd2JNRURBVllDb0RaZ2lZNHBSUEdRSE1qZ0ZUblRsOXVwVGF1RXIraUlWTG5UWDMzbHRmIHUyYU5ENWdLTUpVRmswMTVsekJSWTA1a3JoRXc2eGJNYXYxOGtTTVdMbVh1WGIyNkE1Z1JZS29VbUdaVG52UXhBL1F4UFF4K25IZ2UgYyt4K0lXQjZCc3hxRUxUSUVRdVhJdmZjZlhkdDlUMzNlSUNwQUZNWk1LTVlKdnVZTG1BR0FreDd1aWlaeHd6ZDdkdjluVHQyT1BFRSBlM1AzcmwyNTVpWUJzMlhBVkdmUG5wMVkxNkhLWU1UQ3hjN2RkOTNWQU13SU1KVUZzeHNQZnZ5NHhnd0FrOU5GdGJncDd3Sm1rQUV6IFdma3hseVM1Vmg2OXZuZXZ2My8vL3U2Qk45N29IRHA0c0huazhPR0JmaVJnaGdiTWF2MThFU01XTG1idXV1T09ObUFxd0ZRV3pONE8gSDhDc3h6VW1tM0xXbUgyMUhtRFdBTE1WTitVK1lFWkRZSElUaDdtN3lOejJ4Z2wyRnpXbUE1aWVBVk45Y081Y05RaGFwSWlGaTVVNyBici9kQlV4bHdZd0FjNkNQQ0pnZG80OFpvTWJNYkpLNThnT1lUY0IwQUxNTG1ENWdoamxnSm12bDV1QW5nVmxOSFMxU3hNSko1OXpLIFcrdVAvdGwvUGdpWVNvQ1p1aGNTTUgxajhCT2dLUjlwTFJzdzY0RFpCTXdPWURxQTZRR21ENWpoRUpqcS9OeGNWV3N1UXNUQ1NRY3cgTys4MmZ1c2ZuTC84Q3h0bVpvMEVtSFhBTkZkK0F2UXhTOTlvRVU4WGRRQXpFbUJXVTBlTEVMRncwZ0ZNNTRPVmRYWDJsbS8vdjgxLyA5c2NtektHMUVXQjJESmdjbFhQd1V4cE8xSmcxd0hReWFzem93dzh2VkxYbWhDTVdUanFBMlNMTXVSVUxPZlp2ZjA5dGEvK0hENlNQIGxRS1l2Z0V6bWNjY0d5ZWE4aVpnaGtaVHpocXpCWmloQVZNQlp0WFhuSERFd3NVSVlBWUp6UFBJaFc4eXQ0Ukk5K2ZmdUNWelJRY3cgNnhaTVRoZU5QSjJEUG1ZTmZjeXVOZmdKQUZOL0g0RFpzbUNxK2ZuNXF0YWNZTVRDeFFoZ05vQXlzbURxQUNZVHpsOTNpeHRjZDNNYiBHWUFLbUk0RlUyOTdzejl1V0hqbUJ6QjVHTTBjbFhPNnFLOEdCa3pmZ2xuVm1oT01XTGhZQVVyaURGSmdLc0JVUUtsejhkcWIxVWZYIDNoUjhYTHZKUTV4UGFqZTFkcTY5ODNNTEppZlljNEhCcUx5T1Via25UQmVKc3dLQTJiUmdxb3NYTDFaYjRpWVVzWEF4QTVnMXdBeHkgd2xSQXFRT1k2cE92MzZRdWZmMUdkZjU3MzFGbmYvQnYxUEUvLzQvcXdKb2ZxamZXMzNWUStscEpYdHV6cHdPWVBDVnB6bU9HZ0puWiBoUUJNMzRKWnJRWk5LR0xoWWdjd2E0QUpuSDB3bzdncEQ0YkJ2SFROamVwVDVEUG02aHZWTDY3K3grcnpoWVNYcjduQi81dXJiM0NRIDlzVWZmTytQZHUvYTVRc1Q3SnpISERwNEFzeW1CVk45L1BISDFScjZCQ0lXTGxXQTByVnFUS0tzSVhYQWJBTW1tL0dvQUV3Rm1Bb28gZGI2NCtqZDBQdi91YjZwTDMvL1g2c0tkLzBYTi85VWZldUd2ZlN0M2t3eVl2Z1d6Mm5rMGdZaUZTeG5pTkdDeUdZK1F2aVlXTUp1QSAyUVhNY0JTWWYvdnJ2NkcrUlA3WHIzMUxCekJWZU5XMzFQKys2bHZoTDYrNjN2L2wxNjUzL3U1cjE3Znh6d0d3Z0ZtM1lLcExuMTZxIEp0MUxqbGk0MUFGS2pkUG9ZMGFvTVFlYVdzQ3Nsd3hUQWFZQ1NBV1krcDhNd1NJK1BzWkJXcC90Mm5MUWdobDk5dGxucFUzeVYxbW0gTUJuaXRBWS9BWnJ5Z1RjZk1GMERac1F5d0d3QVpRdHhBTk1EeW1CTW1EcjhtQ1Q4dkM5Ly8zZlZsMy81QityTEIvK24rbkxIcG1ONCB6UXBuU1JFTGwwdml3VThDTTVrdTZudnpBYk5wMVppcC9VV2diQ0F0d0hTQXlBT3VZQnlZWmdpZHdXdEhpSSt2NHlEdEw2NitJWE9rIFgwV09XTGljQXBRYXB6RXFEK3lQQWN6UWdGbTR2d2VZVFdCckE1OFQ5ekhETVdEcXNHWmVTSzhyd1ZyYlJRM2V1ZnpyTjFUem4wTWkgRmk2M0FLWm53R1Q2SnRFQnMydkFISUJiSklEWkJNWm9BakIxMk9jRnpLUVBIS0RiNFNJZHBNSnFSQ3hjYmdITVd0ekhOT2N4ZXlzMCBnTm15Qmo4ajlmV0FyeU0wNVo0Rk15d1JwaDZvSmVIM3psOHMvQnd1MHNIUGRNVjJBOFRDNVJqQXJNVjl6QVFtNXpGN2I1d0ZzOURGIHEyakthOERtRXA4RlU5Zk1LQThNbUwwYUdTRHJTQk5wQXlYN3JTNVErbVBDWFBnNUVQNU03RCtqSCswam5CNXJJVmZFQUVzc1hLNEIgekFaUW1oUHNuTWZVYnhUZVJOK0FtWHVEQlhFQlprQjBGc3dlYnBRN0JreG1LQTZnMUFNdHdPd0NKRmVmeG9HcGc1OTNJYldiUXZ3ZCB1RWdibWNsZFRtTGhjZzdlaUtZQmsyK1l4M0s4aVk0QlUwOGJEVXRjMjBYV3FEd0N6TDRhRitVTkMyYWhHamtKWURiandZOEhsTkVZIE1IdGRHZ2Evc0NIaW9sVnBJek1CVlN4YzdzR2J3ZDFGQ1V5K2VleVBOUTJZckkweSsyZG9kanRBcWZ1SEJzd0lNTVhQNC84ellKYXkgNVkzZkk3NVhEbnc4SkJvRHBnNEhpQXo2NUNIU1JhWjJIVjhzbkliZ3pmRU1tSHdUR3haTThXNUxOSzgxOUFGZERsUXNtT3hIcG1MRyAvL01NbUdPTi9PM0VPTXVFMlFzWEtYNytqVnM4cEkxTVRmOVVMSnlHNE0ycDRVMktESmdjellZR3pJRXRhVUJaUndJT1RpeVk3R05tIHZtbUEyVEZnb2tqK3VDS0phMHlmM3k5andRd01tT3hMNjcwQkk4STA0MzM0alZ1V2ZVMHFGazVMOENZMURaZ0xiK2hYTUprZU52YnYgZ0RKQzlIU09BZE1GektFMUNXQnlFcjRIRTU4MzhsUU8rcGcxZkc5ZGZvOEpTZ05taUorRDNSSjJUeEtZdlY4eS9NeDF3T3dBSkhkYSBqUUpUQVNhM0YwWkk5OEkzNjh1eVR5b1dUbE5ZazJUQTFEVURVSFk0SWlaS0MyYnV2aUpnY2tySmhEblNoRGdHUDIzQTFBTWZDeWFiIDh0NnFGWDRXejRBcHJtWUJaUTFwQWFXTGNLTkxFWmh4OU9rQi8veUsrckthNEJjTHB5bDQwMnA0ODh3bFNST21Cd2d1VVFvd0M0K3MgeDRHSnIxOUgvSlRwSWc1Kyttb3UvQ3lSQVRQWDl3cVVEWVNESGc1K2lzRFU1NjZRY0c1RmZhUVpoN0lqRms1YjhPYlpLeis5TjU0USBMSmpjWkRIU1h6NUE2bFdmR0dhdWZ0b1hWOTlRdzlmbURucHBIalBFOXpvQUhEK0hIc2daTUF0M0c0Q3lnWFFCTXl3QU16bFNIWDZ3IGNtbUJpb1hUR0x5SjVnUjdHa3oyTVVmdUd3SWs5MlFtTUlkdUZzSFg0Z1I3bUh4OUF5YWI4dFRQeDgraDUyUVRtUGIvTHhwZ2JDQTggRmgzbGhLbDQ3aDhKejYyOGRVbWFlTEZ3R29NMzBaNHVrbUIya1pHblRQTENSSTNNMFQrM3Z1RnJmdlgxWTVnZVlHWU9PUEJ6NkYreSBHR2FwQjk0QXN3V1lYazZZQ2pBWkh4bjVGM3FVaUlYVEdyeVpibzZtbkgzTUFIMU1UckFYK3N2T0F4T3Y3U0I2OUcvQlpNMDV0UGJCIDkxL1R2MkJmd1J4YU00OFNvS3dqSGFBTWM4Qk0wbjEveGEyTE1oY3FGazVyOEdiV2M4STBwNHZDa0ZOR1Z3M3ZNMmJCeE9zMWtaQ3YgelJnd0kzenQzTGp3L2JjdG1CTnZTZ0d6Q1pSZURwZ0tNQ05rNHZPZ1l1RTBCMitzbnJBdUFOUGV3ZTc5OG12WGQvN3VhOWNQTkxjUyBUUHl6aG5oOFBjYUM2UUZtb1hsQ2ZQK2VBVFBYbXYrNEFVeWU3VzhoZmc2WU9tZFgzT29oRTZzOXhjSnBEdDdZMXBnd3pXMXZBZEpGIHVXN3liWmdJdXdNUlg4T0NHZUxyRks3cDhMM1hrSVhaaFFXWWVvUEtKSUptdklsd2dsMWZOc0hhTW1lTm1jQmtJbVFpTmJwWU9PMEIgek5DQ3lXTU5ISXhJS3o5Wk1IVllqbkFUUjI4alIvSzVTV0tZbklvYXVVOElsRzBMWm1sVE52SEl2SU53U1RJZStLUU9mcUtjTUpOMCBwYTg1VHNUQ2FROWc2dVUrQTJhdjVnRk1idUpnZjVBMW5rOVVPV0hxajhtQXllWjhyT1U5b0F3c21DTTNsY0YxTjllUjl2eDEraWkwIG5pWktrZ0l6UkxwQXlmdWtPZ2JNQ0draUhKbW53VlR2clZnVm5GbXhxclNtWFN5YzlnQW1qKy8yMVpqU3h5VUJ6QmF3Y1FjN3Q3Mk4gQWpNQ3lyRnFOM3pQVFkzeUs1aUZtdkdQcnIySngwOWFCVmQrMkl4elpONzdoWXBobWpWbXJ3WEF2N2VCa29NZkNhWUN6QWdwWlZwSiBMSnlGQUtWZWowNzZtUGIvVHd0Z3RvRFJCVXh1R0M1U1l6SThWakZTbndzd2ZRdm0wSkh2eDdXYjZrZ0hLUFY1S0s2VE13bktGSmhzIHl0dEFPVkM3b2Nhc0FhVyt0OVNBMmRjS0FHVU40Y0JIZ3BsazdDNklXRGdMQVVyWGhJa1VhbVlCc3dhVTNZSXdrOEVQUnVQNW0zV2cgYkNNTEtCZGdabzdHUDFrNFV1RWplWFlYc1JsbmN6NFVldHlVbTRPZjFFMHV3TmhFd2hTWXpGajlUckZ3RmdLVUhRdG1vWm9NTUJ0QSBxV3ZORVdBbU13RE9GMWZma05udkFzZ2F3alZ6RStZQWlFdGZ2N0greWRmMWZVMVJqdjJZaFhld0F5V25pK3hSZWVZdkYwRFdrRzRLIFRIVjY1YXFSZC9xTGhiTVFvR3lPQ2hNWVd5TTI1VFpNUkUrd2k3dnBHWURzRXFVRnN3ZUtFK3hBeVZPU3czYXdjOXRiRnluY3gyTWYgRXlnakMyWnVWSURaQkV6MkwyMllJK01VQzJjaFFNbk51Q2JNVkJ4bTBNZmtMVy9EQmo4YzBiZVJNQWZNNU90enlxcnZsNE8vUEFsSyBBNlp1eG9HempWRjV5RTBjUkprQjB3ZktzZnAwZ0tsdmRUWmdjdkJUcU9zRG1EVmc5QVNZNnRUS1ZRRlNhTVF1RnM1S0xKaEQ1eGVCIHJ5Mk15aU9VODdZM0UyYXZSZ05LSXVXb2ZCaE1IWHcvM2NzTE85Z1ozWVRiTU5uSFJKSWxTUWttanpEeitHNGhQRktBa3BQczlqem0geUhPeEFOa1JZR3FjMHNlblJTeWNsUlNCQ1d3ZDRyTmdzam5uMFYwYlpoOEl3S3dCSlM4OHlBTXoyZmJtOC9zVFlDYWpjZ2xtaFBDRSBhQ256aFJpWk40blNnc2tITm96MStrRFpRQ0lMSm5KYjdtWmRMSnlWNUlVWkxtemkwTTIxQVpQTGtSeVo2elBsQnN6VUVUTmcxb0dTIHQzRU1nOWxiTXMwSms0ZlJTdDI0eStraUpCSmdsdkoxQUxNR2xJRUZNemRPc1hCV2tnY21hanNlUnRQb0RKZ2VZT3BhQS8rdWExSUQgNXRDSmI4RGtMUnhwK3pHTHdHUWZzMVNRU1lEU1J6UktBMmFwZXorQmtqaDlDNlk2dWZLMm9WTkpZdUdzeElMWk4zV0MybzI3Z2x6RSBYcExzKzQwR1ROK0NtV3NReFFCbUV6RDFwYkVGWVhLajhFUTJSekFmZm9PYk53YVdKQ05rN0Q2ckZLQjBMWmhNNWkrY1dEZ3JzV0QyIDNtalVhT3dUNmt0YkxaaDlmMWx4VTY1UkdqQnp2M21BV1FQTTNubWZBakI1UnI2VWZxUWRUclNuckpWUHBHWk9zb0N6RDZieVY5NlcgT3JVbEZzNUM4S2FMODVqRUFwamN3ZDZiZ3dSTTdob2FtSXdHU2k1UG1qQnpqeXp4ZFZwSU9FWlR6bE9TcGF3N0p3Rks3akNLQkpnaiB6VFVXRFZCcW5BYk1DQkYvQVFjS1ppVjQwM2tIdXdrVHRSZHJzSUdiT0hpcGxnZ0FLRjBMNXRCbUhLL05BVkRjdnh5N2p4bWhqNWw3IDlTWXJBRmxEQXNUZVhWVHFkVGZEUXB3R1RFYjgrZ01Gc3hLODZZNEZrd01TZXo4bW0vUFVKaE1vN1NYSjFHYWNmVmFreTlkbVNvS1ogak1ySGJtWUJrdmNYMmJ1TGVONW5JbDJHckFDbHhobkRWQ2V1djIxZ1lOcjNIN01Vdk9uMkpvN2VBYkVZSmg4T2tQcW1ZRlRPdFhJOSBkUlREVEIyeDRuVjRjYXVlWkM4SWs3dnRuUnd3eDhJSmpEeTYyOXRoRk1Qa0ZUR2xkaFdLaERnTm1FemZZSy92ZzJjcGVOUDFCTFlCIHM0Y0ZjSWIycVFCVDd5d3lZQTdBQUVqZXI2azNHeE9sQUJPL0RLa3dlMU1tUUZsSDdHMXZOa3hPc0JmR09YK2R2dVd0aHpLR3VhUW8gazdBWk4yQ0c3MTcvVlg5ejRJTm5KWEdOSk1FYzJrOEV4aHBnbXBzNCtpYlYwYVQzcHBxU0NEQjVocjJUQWxQc1Z3RmxCOUhMa1NrdyBtZHpUU01GMU56ZmliVzgyekltT3dQTUdLR3ZFR2NOVWdObHIwZ2MrZUJhQzJzZmV3WjdBekxlUlkrR1JmUnBsRExOWHUzRUFoT2dEIGFDa3d1ZkxEQ3c4NDBKSnF6QWd3VS91cWdGa0hTazRYcGNIa3RyZWh0UjFROGhtY2ZGQnNIMHBrNGlqUHJGaFZSNXFuVjY1cUljNnAgaFhCRTdqTm94a09yajVuQVpQVGZqZmpDMHg3QWJLZkFaRDh6YzVUN3k2djAzS1g5T0pVNndtc0l6YnVMYkpnKzBxdk44SFZjQkY5eiBBR2F1VVRaZzZrZkVDREM1aVdQZ1FWeG1ZcFQ2cWNVV3pOSlFubDF4YTUzYjNSQUg2YjYzWXBVUGpDRWk3UzZLTXpDUGFjSU1nTkpEIDlOK2grRVduUFlDcEJ6NENUQjNXYWtBa3ZyR0E2UkNqQVpNYk9QUWpWUktVRmt4dWZldkRodGZuWFp6eDErdURtYm1SeEE1Z3RnRnogNFhMYWZwamM3cGE2TkFxUXZTZktHVEJIM2xGK2JxVStqTlpCZUJPSG4zSG1weThwTUNPZ1pLM3BBR1ViRVd2L2dZSlpDR0RheDNkdCBtS3poQnFhS1dETWFtempNR2xQSGdzbm1mS0FHd210ekFwL255bTJZSTYxREEyWURLRFZPQ3lZekFQM2l0VGM3Q1VvRFp1NEo5TGtWIDlTYkNVNUl1RWdCajcrZ3VRNVFGWUlhSUI1UnN5cHRBbVh2VlRDeWM1ckNQQnBnYTVSQ1l4TldIRS9qOEhEQzVTc1E5bUdLTmk5ZlcgYzVrV1RONWJsTnIwRGd0UUVtY2d3R1I2M1FlZzVGTXJlaWhqbUtrb09USy84TTE2RyttZVg3R3dXUmdvZFlCU3B3Qk1OdVBjS093ZyBUV1RrbjVjUkM2YzVnS2tQZGhrd2U5Y0FDakExVG40ZXNFbjdNVzJZM0I2WE5jbmU1R3RiTUhtMFl1eXBHY0RrbmZNTE9QdGhSaDlkIGV4TWZ6c1ZMVy9XdHdnYk1Ia3JVbWx6NWFTRU9SdVhjV2NRcEk2Nzg2QkJsQVppOGdjTkgyTDlzSWJscndyd1JDNmM1Z01uYmVST1kgZXBvSE1KcEliNW5RZ3NtMWNvODFZUVpNN2pES3hJWFg0OHFQZEtsV2FRTU9vRnpBMlErVDUzMTRmTmUrNnBxRG4rVENnNzdMVzQyViBuN3d3MmFSM0VaNHJYNVQ1VDdGd1dvT1JyTDc3eDREWjErRUhsRTRLVE4xTUN6QzVXVGpYdkNGZVR6K2l4WUpaYUxDVEp4cm53cWpjIGhHbWZrdXpGR3BYbmdja2Q3QjVRT2tqdU9kT3lJeFpPYXdCVDMvMWp3QnhvWW9DbG5RTW1Id3VkdTZiRGEzQkpVcittQVhOaU8zWUEgazQ4dUxBc20xOHRkb0d3amkxSWI1b2xZT0swQlRMMnNGOE5NblU0QkhPa0JWQWxNN2lqSzNYSEg1emNRK3pCYTZTZzVBRUp0MlVscCB5b3ZBREFDVEc0VmJTT2w5dzdJaUZrNWpQdVdscmRjc3JEWEhNTVZtQ0RWWmgzZ3lZT2ErTXdpZnk2VkpmWVRYZ01sdGRXT05TSlBnIFoycGN1dWJHTGxEeXpJODBYWlFISnJlNmNSTUhCejZsZkYrTEViRndHb00zc1d2QUhKZ3p4T0NIUzRSNkFEUUVKcHZ5WERVSlBsZHYgNERCZ2pvMFMzei92a3VmUG9oOFJrN0x5a3dXemR3c0hNalVRN1lpRjB4YThlVFc4aVF1Ykh4Wmc5c0VDeWhaaWIzdkxnamwwMElMUCBzemR4c0RrZkNRSytYejY2cjR2dlhUOXlVUDhjU0U2WStzbTd5TXc4ZVpjUkM2Y3RlUE1jdm9reHpGNy9EczE1N2ZJMStubmhXZk9ZIHZJTjlZUEJqdnI0ZGZHenZ5YjF4aUxMUXdBSGZHemVhOEhxWTNxVUhHbVUrbUh4Y0h4L2J0MndHSzJWSExKeW00QTNqazlIMFU4VHcgWnZLeGQ3cldpdC80WU1qS0Q1Y1ZhNERKZVV3VEpxZUx4TTBXK0xnMlA5WkVpZVFDZ3UraGhlL0h2U3cvc2k4TFpvRHdRcTBsbTc1WiA3SWlGMHhTOFlRN2Z2QmltM3RhR04xbmY5TVlNZ2FsQkFTYWZFMmxQc0ErTXJQRXhEYUswWUdaT0szMngwSTNnWXdPNUFxUy9IMk1IIGV4cE1ka3Y0TEVsdTRwaVo1cmxJeE1KcENXcVFPbUR5d0JaaDZpT3ZlR09scDFiNGhHSEI3QU1GYkcwTFp0L21ZUHcvb3JUdllCZFIgNHZWNVFwTGIzcVQ5bUNMTXk3Ly9MOVhsZS81RS9lMExHL1pKcjNtbFJTeWNsZ0NtQjVpNnVRTk1qbVQxdytnTm1DRWdzTWJTbHc0WSBNTVV0WU1BWEdqRDVUOTJjRXlYU1F4bkQ3SHNOUUc4aDNDVE1Cd1QwdnRZUW1ON2x4KzVSdnpqOXR2cnNzODkwUHYvOEY2WGVoakd0IEVRdW5JUmdBdERnUWlHRW1mVXpkRk1ZdzljZ2FFTHdFUll3bGRmSWIrRG9XVEQzWmp2SUE2YUZFT0NMbkhDYXZJdVNodHJ5M3ZVWDggZmdDVEc1bDFYL2lUVHo1Umx6NjlWTUcwSWhZdTkyQTB5dlZpM255V3dFejZtSVRKcGx6M3kvRG11NnloREpnQmtqcWxBM3oyZmt5ZSArOUVvRFppc09Za3hhYzUxTW1DeWI4aytwamlZRW1DaWVQRGpyclNJaGNzOWdPbHhMcytDR1FKbTc4MG5Tc1FjL0dTaVRBS1lvUUZUIHg0S3BNd1FtKzdQc1k0b1l6UUJtV01FY2pGaTRuQlBQMytsSlpnTW01ekY3NkZCajJrY3IyTWNjaXBJQlRIMzd4Z2d3Mlp5emp6a1Ugb3huQTlDdVlneEVMbDJzK3V2YXJYVFV4VE41TjNqZWRncWJjTlFZL2hKa0xKYkR4d0prTG1QcllibDZZdi9qekg2aVB0cXovK3pObiB6b3cweHlqQnZQdzNsMmQyNGp4dnhNTGxtSXZYM3N4ZDJxRUJjMkFRZzZiY2ZpdzBKOWd6VVFKWE0yV0NQUXVtLytWdmYvdS92L2VtIGQrYlV5WlBxOUtsVENqRFZlMmZPRk41L21RTHppcGxJVDR0WXVCd0RtTHdFUDFrZjdyc3dBRTA1MThvWG5scjdGVXcyNTZrbzBleHkgUksydkloU1dKQWRnZnZtN3Y2a3VkZjVRbmQzcm5qTmZCekFkQTZZNmUvWnNjTzc5OTNOUGlsY3c1WWlGeXkzY0xjT2RNekZNWG96ZiBBNGVtbkV1U0FXQ2EwMFhpUENVSFB3ZzNDb2NjcUNUTjhSQ1kzczhmL2ZFbjc3enpqanFPL096NDhZSHBITUJzQW1ZVXcxU0FHWDF3IDdseXV5eFVxbUhMRXd1VVVvR3dqZWt0WERMUFgvMElmYytGbzY4S29QSUU1c0JyRFBpYmlBS1UrVnN1Ujh4Q1l2UENBZHhmcG11L3QgdDk3eXMyQXlnRmtEVEQrR3FRQlR6YzNOZWVmUHoyVjJKUURUcTJBT1JpeGNMcG0vN3BZR1VSb3dlK2pReCtSdWJuTzZpT3ZMZlc4byBtM0wwTVhtanIxNm5Kc29oTUhsOGR3QjJIcGhKQUxOandGU0FHVjI0Y0Q0VkdtQTZGY3pCaUlYTElULy94aTM2UWlnRHBoN3NzQmxIIDdIbE1OdVc5bWhSTmVUM3VZM0tseFp4Z2wyRHk0bFlleTAwZENSZUJ5UUJtQXpEREdLWUNUUFhoaHgrSzNZc0twaHl4Y0tuREl3Qkkgd1BNcU1VdzkyRUdOeWVraVBUSTNZUG9jL1BEL3M4WVVwb3ZTWUhMZ3d3RlFabFBMV0RCekhiMEF6RnJjbENjdzFmejhmQkRNei9mOSBBcVRBTFAxMDViUkZMRnpLWFBqbVYxY3l4ekJaYS9KWjNJNHhLazlnNmxvSU1GdW9NZm1rQjNOVW5nYVRrK0NGNWdrdG1JWFFBR2JIIGdLa0FVMTI4ZUxFM01LcGd5aEVMbHpLQTJidVNPWWJKd1U5Z0RINFNtT3hqdGxGajZ1Y3RBcWE5aWFNSDg5UHYvbFAxM2wvL04zWHcgeFdjMlNGOXpXTWFCeVFCbUF6QkRBNmI2NktPUC9JOC8vcmhXd1pRakZpNVZnTkpGZWtkTkFaTzNTZWgrcGdXVGZjeTBUUndtVE8rOSBPLy9yaHQyN2Rxazl1M2N6cVU4MXk4cTRNQm5BckFHbVo4QlVnQmtCcGpSZFZNR1VDcGNpUEhSUGxCYk1wSTlwd3pUN21IMHdMNjFhIHBVNy84SS9Wa2NmWDYyWisxNnV2MUFBemltR3F2YS90RVRmM1pnVXcxYmd3a3dCbXg0Q3BBSE5nZHhGZ0ZscHZuOFdJaFl1ZDh5dUkga2xlVmpBNHorTDEvL2c5djMvcy8xTTRkTzlWTEwrMVVyN3o4Y20vMUJUQmRBMmE0Yis5clF3YzhaaXlZdVNiT3N3S1lEY0FNTTJCVyBvM0twY0RFenQzQTFDYThxR1JXbU4vZjk3LzJSdTMyNzJ1RzZDY3krSlV2QWJCZ3dGV0RtcnZXT0hUdmFzR0NPalFZdzY0RHBWVERUIEl4WXVWb2lTTjR1TkFKUDNrTHVBcVd2RjdTKys2Rm93QjVwcm9QUU5tTkhyKy9ibHFqVUJzMVVXVFBReGEyaktuUnhOZVFWVEtseU0gZkxCeUFXVkJtRnduZDVBZXFtM2J0dFVCVXhrd0k4QWNRQWVVVFFPbUFzeGM4NUdBNlZnd0MzVURrbUR3MHdITXlCcjgrSUJaTFVrSyBFUXNuSGQ2enlMc1hDOERrM1krY3h4eEFBWml1QlRQMVRBOXJUUU9tMnI5Ly85QkJCbUQ2Smt6Ny93L0wrZk56clFzWHpvZldQR1lFIG1McXZDcGpWeW84UXNYQ1NJVXBFWHdxYUF5YnY0VWtkUlcvYjlrSWRNSlVGTTNYeW5MV21CVFB5OXUvUG5Hd0h6TWlBbWZ1ZzJBZm4gempYbjV1WjhhK1dITUQzQTdQMkNWVERsaUlXVHl2c3JGbERtZ01rYmNJZE82d0NtYThFVUgreGtCakE5QTZZQ3pPREFHMitJemZQUiBvMGNiZ0trTW1LbTFjWkt6WjgvV3o3My92bXRzNGtoZ2NvSjlBRndGVTQ1WU9Ja0FwY1A3dTdOZ3p0MTgyOThEWnE1NXh1ZWZmeDYxIDVRdktnam4wY3dHekJwaWhBVk1CcGxnVEFtYkhncGs2bW8rM3ZUbld0cmNFcHNNSmR1bnpKSmoyeDF5SkVRdkx6dGtWdDdwRW1RYnogdmNadnFYMC8rbFAxUkxlYnU2WUFUTlNXZlRBandNdzFNQUhNQm1CR0JreDE4TUNCZ2RvUU1EMExwdmo5blQ1MXFtTnRGRTVndW9DWiB1WnU5Z2lsSExDd3pSSW4wSHNOaHduenZkLzZaZXUydi9sUTkvdGhqUVBrNFllYUM5ZnpXclUzQUJNbyttT0syc3JRQVpzdUNxUTRkIFBOaUhFekFqQzJiZjkzZnl4SW5XcVpNblErdG9CV0g2N0dPYUg1dVdDcVljc2JDc25GbXhTcU8wWVo3OTlqK0pkdi93VDlTbVJ4OVYgajIzYTFJTnBmMzVhQU5NWFlPWStaNU1FTU5zV1RIWDQwQ0dOODgwalJ4cUFxUXlZdmFzSlQ3ejdidE0vY2NJSFRHVWRSZ3NCcytqeCAzUXFtRUxGdzNQRGhRd2lmTGRoN1FGRU1Nd0pNNTZuNzEyeDQ5SkZIUm9LNTlibm5Xb0NwTEpoREJ5VnBBY3l1QlZNZE9YellCY3l1IEJkTkZqVm4vMmZIakxtQXF3RlFHekFnd1IxcERGMkFPSGNCZENSRUx4OG5wbFJwbFFKUUd6QWdvT2ZqUlRlRWpHemM2QXN6TXkxS1QgQUdZb3dDeGNXNW9CVE5lQ3FRQlRXVEFEd09RRXU3SmdkZ0V6VnhkRWlnQXo5NVRVTEVjc0hEV25WcTVxQUdZUFpReXppL1M5Y1NrdyBoNzRoenozN3JBT1l5b0k1Y20xcGhvT2ZJVERaeHpSaHNpa2Y2eGVDcVdES0VRdEh5YW1WdHpVQU0rTFRWbU9VTGlLK2NhUEFmUGFaIForcUFHVmt3SThBY0cwY1N3UFJ5d0F6Wng1UStmNVFBcHIwZk0vZFRNMlk1WW1IUm5GeDVXNHVQKytXamZ3R1RmY3ZNMVpRUllicUEgcVN5WXBXeW9SVk5lejFsamxvNUdnRm5LenpUdEVRdUxCQ2piZkNnNllJWjg5Sy8wTVhZQXMxMmtqL25NbGkxTndGUVdUTlNXTDR6YyB0Mk13S205aThPTUtnNStzR3ROSGpWbGFMUTJZOW0xdkZVeEVMTXliWTkvNTdXTkF5UWVqNTFxdFNRS1lUUUVtL3BmODhZQVpDREFMIGZVMHorL2ErMW5wOTN6NWZtTWZNMjhlTTBNY3NCUkJnMnR2ZVJ2NjVaaWxpNGJEcytFL2Z2K1h3di9vWC8vZk43LzdPczBBNVVxMGwgd1pSV2ZyWTgvWFFITUpVRnMvQ1V5cDdkdSt1SXMzZGhCN3U1Vmo0TUpuY1hlY0xnaDZQeUVLUHlrZnViSHk4Y1JyTmhsdFovbmVhSSBoVmw1L2Q5OTd6c3YvOEcvL3orYk9uL3hvdlQvOHdZd0F3Rm1YeTMwOUZOUDFRQXpFbURtZXZONHZHTFhxNjkwZHUvYXBUY0pNOWJ1IElodG1LTURVTlJoZ05nSFR0MkFtODVqK21UTm5DaDBKWmdDeldjR1VJeGFtWmZVOTk5VHVYYjA2dUcvMTZuRE52ZmVPMWI4RHpLNEEgczY4bUJFd1hNSlVGTTNONmFPZU9uYTJYWHRyWkJjb1FVWUNwakZPU0VrenVMdW9BWmcwd2ZRdm13S2xLd0d3Q1ptREJURlorM0xObiB6K1lHQ3BndEFlWllmNit6RXJGUUNsRWlBV0Fxd0J6N0ZCOWdOZ1dZNnNrbm50QTF4bE9iTnpjQlUxa3dPVjNVTi9EZ2ROSDJGMS9zIHVOdTNlL0Yrek9Rd21rNEtUTzR1Y2dDejkxcUEyUlNhOHRUMWQ4QnN4MDI1Q2ROY0syL1B6V1ZmcUFXWWpnM1QvcGdyTldLaG5iLysgOFk4MVNrUUJabWxUSm9BWkNUQjFqUWlZb1FCVDcvcG1VNDdCVHhlajhqQmUrVW0ydldYQkRKRXVZSW8xR21ENkFzeWhvMi9BYkFObSBhTUZNZGhkRjU4L1B1UmN1bkJkL2tRR3phOEhNdGZwMUpVUXNOSFBQM1hmWEFGT2pSQ0xBTEsycEFjeXVBRk50ZnZKSkZ6Q1ZBTk5EIGpSbkZvL0prNVNjTFpnQ1lYWjZTbEw1K0VqVGxUV0h3VTJnRkJqQ2JnR2xmUTJodUZJN201K2ZkWUg2K2h4UXdlZWJIaEZtdCtzUVIgQzgwQXBnZVlSTW1NM1lTYkFjeEdDa3lWQXRPY0xrcUQ2UUZtR3loenp6VUNwaS9BSE9sbkJVenVZTzhDcG4zYm0zM214d1hNMElKWiBhT3ZlTEVjc1RITDNYWGQxQVZQRk1DZXlWQWFZL3Bnd0k4RGs4ZDFXM28zQ1pqRDRhUXJUUmFVMHFZRFpBTXd1WU5xSDBkS083NDU5IG1jS3NSQ3hrN3I3enpqWmdxaGhtQkppbHJYWWtpV3RNZHdTWVlkekhISHRxQlRDbGxaL1NnUUJtQXpBN2dPbG53S3ltaXVLSWhYZmQgZVVjRE1DTURabW5MWkJ0L3VxSDF5TWFOWFl6S3c1UlJlUnJNQURDNXU2andmR0ZhT0NvWEp0Z2p3SnpJbEEwUG84V25KTk5nVmxORiBjY1JDd0F3QVU4VXdJOEFjK1Mvc29RY2ZxRC84MElQdERROC83UDEwd3dZRm1Bb3dWY3JLandUVEI4elNhMnNHTUYwQlp1bHIxV2pLIDI2Z3hZVEt6S1IvcEpycFp6VURCblhmYzdnQ21NbUFXZnFNZXVIOWQ0OEgxNjdzUFBmQkFBSmdLTUJWZ3FoRmhjdVdudEZveXlldjcgOXRVQWsrZktUWmdSWUpaU2EySHd3eHVGSGZReGVRZTdPZmlKQU5NQlRONlBhY0tzUnVSRyt2N2pqdHR2cndPbU1tQkdnRG4walZyNyBrNS9VMXExZDI3N2ZjZHoxNjlaRmdLa0FVd0dtR2dJenpEbjRpZENVbDRvem5tQzNseVRIcmkyNThvTlJ1WFN1bk5ORkRtRHF2MCtoIHhpeTlwcDdtOVAwSFlIb1d6TlMvckRYMzN0djR5WDMzZGRhdVdlTURwZ0pNQlpnS01GVUd6QUF3WGNEa3RqZmRQQU5ta0xPUEdhR1AgV1VxVHZtL3ZhM1hBdEkvdlJvQTVjbTE1NXN5WlZzbzhKbXZNdm5QbHFERmJBc3hTcCtLbVBiMS91ZjFIUDJvQ3BySmc5cjFSbk1lOCBkL1hxYnJ4V3JnQlRBYWJLZ01tbXZBdVlMY0FjZU5OUll6cENVKzRBWmlEQTVLZzh3T0JuWkR4SkFOTTExc29UbUlWcnJKTW5UdFF5IFZuNml1Q2tmK0g0QnN5dkFIUHZubXFYMC9nVXdYUXVtQzVoMU5PVnRESDQ4b09TVUVaY2t1VmF1VW1ENmdPa0E1dEJwRDlTWURhR1AgcVpjakFiTUdtSkVBazlORndmTmJ0NDc4SnU1OWJVOVQyRjFVYU43eXhMdnYxcmdmRXpBallhMDhBa3lIZlV6cGN4bkFEQ3lZMWNsSSBLL3FQMnp1ZEdtQXFDMllZRDM2U0NYWWRBMllFbUI1Z2RnQ3owUHdibXZJYVlOclRSUUZnOXQ1TXdHd0FaaVRBVE9ZeFIrcHpBbVlnIHdNeTFPZmY0VjhkM3VWSFkzbDBVQW1ZSE1ETi9hZERIckF1ajhsSU8xTTFTOUIrQTJSWmdKcVB5QkdhSXVJRFpBY3l4QmlLQTZWcWogOGdnd0IxNFRNQnVBS2UzSFRJNVdGUG8rOWl4c0ZMYTN2VVdBbVlucDdiZmVhcjZ6Y0s3YzNpaE1tTHlKSS9ldWM4QnNDekNyWGV0VyA5QitBNmFYVW1HN2NsSmMyajRqQkR5Zlk3ZW1pMUk0L1lEWUFrNk55RzJheUpKbXJid2lVM01FZUNUQlRQLy9vMGFQdFk4ZU9Cb0FwIEhkOE5BTE13S01CMEJaZ2pkMDFtTmZvUHdBd0VtS1d2aldOVVhnUE15SUk1RkJaZ05nQ1RvM0lKSmpkeCtPNlFLMktBMHJ6cU9vSEogZWN3K0ZJY1BIYW9mT1h5NCsrYVJJMUc4ZzkwKzgrTUI1c2hMaC9FOHBnbXo2bDhLMFg4QXBrcHB5a3Y5VFFaTTM1ckh6STBmTUJ1QSBhWjhyVDJCeWR4RnZleFBYdUhmdjJ0VWhTZ0ZtNzVjQ28vTFdvY0VkN0FuTUNEQzc3R09hcjFzMDgvUHpEY0MwVjM2cUhVVkM5QjhaIE1FdnIrMng0K09HT05jSE93VThoK0lEWkFFeU95aVdZeWJZMy82V1hkdllBN1hyMWxUcGdSZ0pNem1NMjJKUnpWQjVQc0p2YjNnZ3ogQk13T1lKYnlDd3FZM01SaHc2dzJiZ2pSZndCbWxBS3psR1d5aHg5NnNHR3QvRVNBT2RJQUNqQnJnTm5OZ01tTnd0RXJMNytzYTAvQSA5SVdqRlFsTWN4N1RoT21QdWg4eks0RHBXekNyOWZHVTZEOEEwMCtCeVZINTJBTWZ3QXdzbUdQWHhJRFpCTXhoUnl2Q2xETS81dURIIFhQbHgyY2VVdnQ2NDRjcFB2Rlp1d3F5bWlWS2kvd0RNVGdiTXNmN3k0cFVmYzYyOHRENFZZTllBMDhtQW1lZVVaTWg1VE1DYzZNZ1kgTU5zQ3pHb1pNaVg2RDhDc1o4RGtQT1pJdGNoRER6elF0TmZLcFk4Yk40QlpCMHkvSUV5WTNMOW8vVHZBOUFTWUUvMWxtT2IwL2dVdyAvUXlZaGFlT0hseS92Z2FZa1FFekFzeFMzd2pVbUh5Y1NnY3dnNEkxSnArTXRtaVQyaGN1bks4QnBuMjBZaUpIVldZbHZYOEJ6SFlHIHpNSUgwUURUczNZWGpiVmFsQVNEbnpvR1B4MzBNWU9Nd1UrZUdwTk51WTlxYytLMVpyeFIySVpacmZaa3BPOC9BRFBJZ01sTkhMbHcgUFhEL3VyYTE3VzJzTXpUeEJIdjN1WVhkUlduem1LUDJNVG40NFNuSmlmWDNBTk96WVBLVVpOV01aNlR2UHdDem1RR1Q0VTBjbVgraCA2OWV0cXdObVpNQWNhZkFVYitMb2JubjY2VEJsclZ5Q0dRSm1JTUNNZ0pKUDRHMERadGFsV3J5N3FIUGs4T0hTUnViYzloWnZGRFpoIFZxUHhJUmtvQUV3dkF5WjNGL0h1b2xTY2dCbFkrekZ6MXd4UGRMdU5KNTk0b3J2NXlTZkRsUDJZTmt6ZUtPd0JaaHN3NjRCWkE4eFEgZ05sWEd3Sm1HekNIWFVNWUhEMTYxRGwyN09oWVRUMWd0Z1dZMVdoOFNBWUtBTE1HbUZFR1RHNTdDNlJMdGU1M0hNZllLQndCNXRDYSA1N0ZObXhxUFAvWlk5NG51NCtHUUhleUV5U1ZKTCs1akRuUXJBTE1yTk9XcDAxT0F5Vk9TZkdwRkpNQTBseVM1VnM2SEE3Zy9PMzdjIDRWcTVmK0pFcm00TllBWVd6T29hbUJ3UkN3R3pPUVFtOTJNR1A3bnZ2aDdPZFd2WE5xd2Q3S2sxelNNYk43WWVmZVFSZDVOOGQ1RjAgU3RMaFdybjBXa2xRWXphRlBtYnU2U24yTVFFenp4M3MwclkzWGtQWWZXL2hrWDJ0YysrLzMvemczTG42M054Y0hURHRtemlxdGZFYyBFUXNad0RRdlBKQmdjZ2Q3c0hiTm1scDhHQzAwWUE3c0dNS292UFhURFJ2Y2pZTzdpMnlZUG1BNmdKbTdDVVZUWGdQTTBJTEpaY21SICtvcUEyUUpNQnpEOUhEQ2wyOTZrdTRzU21CTlpXWnExaUlWSkFOTVpBcE5IS3lMQTlJd3pQNzM1T1RUbExRNStNQ3FQakpVZmMzY1IgWWZJd0dwdnlrZnRkZ05rVlJ1V2w5ZU1Bc3dHWUxjQjA0bTF2L29nd3F5TzZPU01XbWdITTdoQ1k1cG1mRUREYnFESGR1SThwSGQ4TiBBSk0zY2JTSzdpNlNnc0ZQd3hpVkp6QVhwYmtFVEI1R2F3Sm1DekFkd093Q1pwQUJzNXE3ekJteDBBNWd0blBDbEk3dmhvRHBBbVliIE1FdHZ4Z0F6c0dBdXljWmJ3T1R4WGQ0b3pNTm9Fc3hxMEZNZ1lxRVVvR3dodkI4ekQ4d0FNTnQ1UnVYalpOdTJGeHhySGpNQ3pFWHIgdzZIRzVOTjNYZFNZZkphazJaVHpSbUViWnE0aklGVVdJaGFtQlRBYmdNbDV6RHcxSnBja0o0YUUwMFhDQlB2RTV3ZlJ4MnloaittaSBqeGxaZlV5ZWt1U29uUGRqY2xSdXd4eTcyM0lsUlN6TUNtRFdBTE9ic3lubkpvNkozUGtJbVBaYStVVDZsUmlWMXpENGFXUHd3MU9TIGtUVXE1N2x5MXBoOXZ4Q0FhVjhSVTYzMEZJeFltQ2VBMlFUTU1FY2ZrNE1mYmhRdWJiUEU4MXUzT3RhU1pLbjl5aU9IRDlmZVBIS2sgZmZUb1VTOWx1b2lqY2o0Y1FLd0ZBVE95WUpheWdlVktpbGhZSklEcEFHWTBCR1l5S3Zjd0toK3JlZC82M0hNTmE2MmNOd3FQM1dVNCBlT0JBL2REQmc1M0RodzU1S1JQc0lXQjJBRFB6YTZFcGJ3T21PZmlwcG9oR2lGaFlOSURKQ1hZM0I4eGtIcE1YSG94VWl3Q21mUmh0IDVIN2wvcThPb3dVcFM1SThqTmJsUEtiMCtWSUEwN05nVG54YjNTeEdMQncxZ0ZrSFREY0h6R1NDM1g5czA2YmNjM3ZQRFQ2dnZGQy8gY3MvdTNmVzlyKzFwNzl2N212ZDYrbUUwM2lqc0FtWmhVQmo4MU9KUmVRS3pxaTFIakZnNGJnQ3pEcGk4dU5YY3daNjI4cE5jRWRQbCA3aUxwOVpobkY1NVhidTR1R3RxdmZPWGxseHU3WG4ybHZYdlhMaGNvK1p5ZnRQMllyREc3Z0RsV1h4QXdlWGVSQ2JPYVVCOHhZbUZaIEFjd2FZTFlCTXh3QzAxd3JEelkvK1dUbnFjMmIrL3B5Z09rYk1DUEFIT2pyN1hEZDVzNGRPenN2dmJUVGk5ZkswellLQjREWkJjd1cgWUpZMmpRT1lnUUd6bWxBZkkyTGhKQUtZRGNETXM0bkQzRjBVYkZsNCtpNTNGNW43TWZsa3REcWE4aGI2bUYwTWZuaEZqTDFXcmhQRCBESUN5aTdRQWN5THppV2ZPbkdrWUUreUVXZFdXWTBRc25IUUFzOGkyTjN1ak1KK014aG96R2Z5WUUreUVHUUdtRDVRT3NtZ0REOEIwIERaaFZiVGxteE1MRkRHQzJBTk1GekR3YmhlMGQ3QW5NRURBN2dMbGs4NFdBR1Jrd3E1SDRtQkVMbHlvYy9BQm1CekM5Z2pDVEdwTm4gZm5oM0VXdkxGakwyL0dhZW5ENTFxbTJzbGZkRzRyLzZxLzlveVg1UnBqMWk0WElKWURZQjB3Rk1EekN6cmlFMG0zS3BqOGtyQ0RreSA1OFd0dk9xNlZMQ0F5UjNzQ2N5cXRpd2hZdUZ5RFdEV0FiTU5tTHhVeXk4QU0rMzRib0JSdVgvZ2pUZWNnd2NPT0ljT0htd2RQblNvIGVhVEFLY2xUSjAvVzQwMGNoRm5OVzVZVXNYQ2FBcGg4a0g0TE1CM0E5QUJUT3I2YkJqUHJsR1N5Sk9tLy9kWmJmcnlKZ3p2WWs4Tm8gelpNblRqUUEwekZnTGtyWDRVcUlXRGdMQWNvNjBnVE1EbUE2UU1ubTNBZk1xQ0RNdkdkK3FrTm1KVVlzdkJJQ21BM0FiQUpteTJqSyB1NERwQXlidngvUUx3T1JHNFdxL1pZa1JDNnZJQWN3R1lEYU5wcndKbUR6elV6WGhKVWNzckZKbHFTTVdWcW15dEZHLzh2OEJyNjFhIEJKdVdxaWNBQUFBQVNVVk9SSzVDWUlJPSIgdHJhbnNmb3JtPSJtYXRyaXgoMC4xMzM1IDAgMCAwLjEzMzUgMCA0Ny4wOTMzKSI+JiN4YTsJCQk8L2ltYWdlPiYjeGE7CQkJPHJlY3QgaWQ9InJlY3QyNTUyNTAiIHg9IjAiIHk9IjQ3LjA5IiBzdHlsZT0iZmlsbDpub25lOyIgd2lkdGg9IjIyLjE2IiBoZWlnaHQ9IjI0LjE2Ii8+JiN4YTsJCTwvZz4mI3hhOwk8L2c+JiN4YTs8L2c+JiN4YTs8L3N2Zz4=;" vertex="1" parent="1">
          <mxGeometry x="440" y="770" width="48" height="70" as="geometry" />
        </mxCell>
        <mxCell id="gzjT-cttMb3SWeKKo4pO-38" value="Virtualisation" style="shape=step;perimeter=stepPerimeter;whiteSpace=wrap;html=1;fixedSize=1;rotation=90;fillColor=#ffe6cc;strokeColor=#d79b00;horizontal=0;" vertex="1" parent="1">
          <mxGeometry x="534.78" y="811.01" width="56.81" height="122.11" as="geometry" />
        </mxCell>
        <mxCell id="gzjT-cttMb3SWeKKo4pO-40" value="" style="whiteSpace=wrap;html=1;" vertex="1" parent="1">
          <mxGeometry x="284.1" y="910" width="558.18" height="220" as="geometry" />
        </mxCell>
      </root>
    </mxGraphModel>
  </diagram>
</mxfile>
